<svg width="24" height="24" viewBox="0 0 24 24" fill="none" xmlns="http://www.w3.org/2000/svg">
<path fill-rule="evenodd" clip-rule="evenodd" d="M2 12C2 6.477 6.477 2 12 2C17.523 2 22 6.477 22 12C22 17.523 17.523 22 12 22C6.477 22 2 17.523 2 12ZM12.75 17C12.75 17.414 12.414 17.75 12 17.75C11.586 17.75 11.25 17.414 11.25 17C11.25 16.586 11.586 16.25 12 16.25C12.414 16.25 12.75 16.586 12.75 17ZM12 6.25C9.929 6.25 8.25 7.929 8.25 10C8.25 10.414 8.586 10.75 9 10.75C9.414 10.75 9.75 10.414 9.75 10C9.75 8.757 10.757 7.75 12 7.75C13.243 7.75 14.25 8.757 14.25 10C14.25 11.243 13.243 12.25 12 12.25C11.586 12.25 11.25 12.586 11.25 13V14.5C11.25 14.914 11.586 15.25 12 15.25C12.414 15.25 12.75 14.914 12.75 14.5V13.702C14.393 13.353 15.75 11.836 15.75 10C15.75 7.929 14.071 6.25 12 6.25Z" fill="white"/>
</svg>
